<?xml version="1.0" encoding="UTF-8" standalone="no"?>
<svg
   xmlns:dc="http://purl.org/dc/elements/1.1/"
   xmlns:cc="http://creativecommons.org/ns#"
   xmlns:rdf="http://www.w3.org/1999/02/22-rdf-syntax-ns#"
   xmlns:svg="http://www.w3.org/2000/svg"
   xmlns="http://www.w3.org/2000/svg"
   version="1.1"
   id="svg3070"
   viewBox="0 0 76.247993 75.767311">
  <defs
     id="defs3072" />
  <metadata
     id="metadata3075">
    <rdf:RDF>
      <cc:Work
         rdf:about="">
        <dc:format>image/svg+xml</dc:format>
        <dc:type
           rdf:resource="http://purl.org/dc/dcmitype/StillImage" />
        <dc:title></dc:title>
      </cc:Work>
    </rdf:RDF>
  </metadata>
  <g
     transform="translate(-200.55198,-397.17428)"
     id="layer1">
    <g
       id="g3019"
       transform="matrix(1.018827,0,0,-1.018827,170.5996,498.03288)">
       <title>LinkedIn</title>
      <path
         id="linkedin-logo"
         style="fill-opacity:1;fill-rule:nonzero;stroke:none"
         d="m 29.398887,93.633827 c 0,2.96 2.4604,5.361 5.4956,5.361 l 63.376,0 c 3.035103,0 5.495603,-2.401 5.495603,-5.361 l 0,-64.117 c 0,-2.961 -2.4605,-5.361 -5.495603,-5.361 l -63.376,0 c -3.0352,0 -5.4956,2.4 -5.4956,5.361 l 0,64.117 z" />
      <path
         id="path28"
         style="fill:#ffffff;fill-opacity:1;fill-rule:evenodd;stroke:none"
         d="m 51.941887,36.346827 0,33.794 -11.2325,0 0,-33.794 11.2325,0 z m -5.6163,38.408 c 3.917,0 6.355,2.595 6.355,5.838 -0.073,3.316 -2.438,5.839 -6.2807,5.839 -3.8423,0 -6.3545,-2.523 -6.3545,-5.839 0,-3.243 2.4375,-5.838 6.207,-5.838 l 0.073,0 z" />
      <path
         id="path30"
         style="fill:#ffffff;fill-opacity:1;fill-rule:evenodd;stroke:none"
         d="m 58.157187,36.346827 11.2324,0 0,18.872 c 0,1.01 0.073,2.019 0.3696,2.741 0.812,2.018 2.6602,4.108 5.7632,4.108 4.0645,0 5.6904,-3.099 5.6904,-7.642 l 0,-18.079 11.2315,0 0,19.377 c 0,10.38 -5.5415,15.21 -12.9316,15.21 -6.0596,0 -8.7198,-3.387 -10.1978,-5.694 l 0.075,0 0,4.901 -11.2324,0 c 0.1474,-3.171 0,-33.794 0,-33.794 z" />
    </g>
  </g>
</svg>
